<mxfile host="Electron" agent="Mozilla/5.0 (Windows NT 10.0; Win64; x64) AppleWebKit/537.36 (KHTML, like Gecko) draw.io/26.0.4 Chrome/128.0.6613.186 Electron/32.2.5 Safari/537.36" version="26.0.4">
  <diagram name="페이지-1" id="jH2TFRtSkhVxqRo1drF6">
    <mxGraphModel dx="1687" dy="993" grid="1" gridSize="10" guides="1" tooltips="1" connect="1" arrows="1" fold="1" page="1" pageScale="1" pageWidth="3300" pageHeight="4681" math="0" shadow="0">
      <root>
        <mxCell id="0" />
        <mxCell id="1" parent="0" />
        <mxCell id="l7kf4bjw7-olmJK9a59Z-1" value="로그인 PROCESS" style="rounded=0;whiteSpace=wrap;html=1;" vertex="1" parent="1">
          <mxGeometry x="280" y="200" width="120" height="60" as="geometry" />
        </mxCell>
        <mxCell id="l7kf4bjw7-olmJK9a59Z-11" value="" style="edgeStyle=orthogonalEdgeStyle;rounded=0;orthogonalLoop=1;jettySize=auto;html=1;" edge="1" parent="1" source="l7kf4bjw7-olmJK9a59Z-5" target="l7kf4bjw7-olmJK9a59Z-6">
          <mxGeometry relative="1" as="geometry" />
        </mxCell>
        <mxCell id="l7kf4bjw7-olmJK9a59Z-5" value="시작" style="rounded=1;whiteSpace=wrap;html=1;absoluteArcSize=1;arcSize=140;strokeWidth=2;" vertex="1" parent="1">
          <mxGeometry x="660" y="210" width="128.57" height="60" as="geometry" />
        </mxCell>
        <mxCell id="l7kf4bjw7-olmJK9a59Z-12" value="" style="edgeStyle=orthogonalEdgeStyle;rounded=0;orthogonalLoop=1;jettySize=auto;html=1;" edge="1" parent="1" source="l7kf4bjw7-olmJK9a59Z-6" target="l7kf4bjw7-olmJK9a59Z-7">
          <mxGeometry relative="1" as="geometry" />
        </mxCell>
        <mxCell id="l7kf4bjw7-olmJK9a59Z-6" value="로그인 폼&lt;div&gt;(login_form.jsp)&lt;/div&gt;" style="strokeWidth=2;html=1;shape=mxgraph.flowchart.document2;whiteSpace=wrap;size=0.25;" vertex="1" parent="1">
          <mxGeometry x="674.28" y="330" width="100" height="60" as="geometry" />
        </mxCell>
        <mxCell id="l7kf4bjw7-olmJK9a59Z-13" value="" style="edgeStyle=orthogonalEdgeStyle;rounded=0;orthogonalLoop=1;jettySize=auto;html=1;" edge="1" parent="1" source="l7kf4bjw7-olmJK9a59Z-7" target="l7kf4bjw7-olmJK9a59Z-8">
          <mxGeometry relative="1" as="geometry" />
        </mxCell>
        <mxCell id="l7kf4bjw7-olmJK9a59Z-7" value="ID/PW 입력" style="shape=parallelogram;html=1;strokeWidth=2;perimeter=parallelogramPerimeter;whiteSpace=wrap;rounded=1;arcSize=12;size=0.23;" vertex="1" parent="1">
          <mxGeometry x="665.94" y="420" width="116.67" height="70" as="geometry" />
        </mxCell>
        <mxCell id="l7kf4bjw7-olmJK9a59Z-10" value="" style="edgeStyle=orthogonalEdgeStyle;rounded=0;orthogonalLoop=1;jettySize=auto;html=1;" edge="1" parent="1" source="l7kf4bjw7-olmJK9a59Z-8" target="l7kf4bjw7-olmJK9a59Z-9">
          <mxGeometry relative="1" as="geometry" />
        </mxCell>
        <mxCell id="l7kf4bjw7-olmJK9a59Z-8" value="유효성 검사&lt;div&gt;(login.jsp)&lt;/div&gt;" style="rounded=1;whiteSpace=wrap;html=1;absoluteArcSize=1;arcSize=0;strokeWidth=2;" vertex="1" parent="1">
          <mxGeometry x="659.28" y="530" width="130" height="60" as="geometry" />
        </mxCell>
        <mxCell id="l7kf4bjw7-olmJK9a59Z-31" style="edgeStyle=orthogonalEdgeStyle;rounded=0;orthogonalLoop=1;jettySize=auto;html=1;entryX=0;entryY=0.5;entryDx=0;entryDy=0;" edge="1" parent="1" source="l7kf4bjw7-olmJK9a59Z-9" target="l7kf4bjw7-olmJK9a59Z-26">
          <mxGeometry relative="1" as="geometry" />
        </mxCell>
        <mxCell id="l7kf4bjw7-olmJK9a59Z-34" value="" style="edgeStyle=orthogonalEdgeStyle;rounded=0;orthogonalLoop=1;jettySize=auto;html=1;" edge="1" parent="1" source="l7kf4bjw7-olmJK9a59Z-9" target="l7kf4bjw7-olmJK9a59Z-33">
          <mxGeometry relative="1" as="geometry" />
        </mxCell>
        <mxCell id="l7kf4bjw7-olmJK9a59Z-9" value="ID is NULL" style="rhombus;whiteSpace=wrap;html=1;rounded=1;arcSize=0;strokeWidth=2;" vertex="1" parent="1">
          <mxGeometry x="895" y="520" width="80" height="80" as="geometry" />
        </mxCell>
        <mxCell id="l7kf4bjw7-olmJK9a59Z-21" value="username_msg" style="swimlane;fontStyle=0;childLayout=stackLayout;horizontal=1;startSize=30;horizontalStack=0;resizeParent=1;resizeParentMax=0;resizeLast=0;collapsible=1;marginBottom=0;whiteSpace=wrap;html=1;" vertex="1" parent="1">
          <mxGeometry x="1310" y="380" width="140" height="60" as="geometry" />
        </mxCell>
        <mxCell id="l7kf4bjw7-olmJK9a59Z-22" value="username을 입력하세요" style="text;strokeColor=none;fillColor=none;align=left;verticalAlign=middle;spacingLeft=4;spacingRight=4;overflow=hidden;points=[[0,0.5],[1,0.5]];portConstraint=eastwest;rotatable=0;whiteSpace=wrap;html=1;" vertex="1" parent="l7kf4bjw7-olmJK9a59Z-21">
          <mxGeometry y="30" width="140" height="30" as="geometry" />
        </mxCell>
        <mxCell id="l7kf4bjw7-olmJK9a59Z-25" value="YES" style="text;html=1;align=center;verticalAlign=middle;resizable=0;points=[];autosize=1;strokeColor=none;fillColor=none;" vertex="1" parent="1">
          <mxGeometry x="940" y="600" width="50" height="30" as="geometry" />
        </mxCell>
        <mxCell id="l7kf4bjw7-olmJK9a59Z-36" value="" style="edgeStyle=orthogonalEdgeStyle;rounded=0;orthogonalLoop=1;jettySize=auto;html=1;" edge="1" parent="1" source="l7kf4bjw7-olmJK9a59Z-26" target="l7kf4bjw7-olmJK9a59Z-35">
          <mxGeometry relative="1" as="geometry" />
        </mxCell>
        <mxCell id="l7kf4bjw7-olmJK9a59Z-38" value="" style="edgeStyle=orthogonalEdgeStyle;rounded=0;orthogonalLoop=1;jettySize=auto;html=1;" edge="1" parent="1" source="l7kf4bjw7-olmJK9a59Z-26" target="l7kf4bjw7-olmJK9a59Z-37">
          <mxGeometry relative="1" as="geometry" />
        </mxCell>
        <mxCell id="l7kf4bjw7-olmJK9a59Z-26" value="PW is NULL" style="rhombus;whiteSpace=wrap;html=1;rounded=1;arcSize=0;strokeWidth=2;" vertex="1" parent="1">
          <mxGeometry x="1105" y="520" width="80" height="80" as="geometry" />
        </mxCell>
        <mxCell id="l7kf4bjw7-olmJK9a59Z-27" value="password_msg" style="swimlane;fontStyle=0;childLayout=stackLayout;horizontal=1;startSize=30;horizontalStack=0;resizeParent=1;resizeParentMax=0;resizeLast=0;collapsible=1;marginBottom=0;whiteSpace=wrap;html=1;" vertex="1" parent="1">
          <mxGeometry x="1310" y="445" width="140" height="60" as="geometry" />
        </mxCell>
        <mxCell id="l7kf4bjw7-olmJK9a59Z-28" value="&lt;span style=&quot;text-align: center;&quot;&gt;password&lt;/span&gt;을 입력하세요" style="text;strokeColor=none;fillColor=none;align=left;verticalAlign=middle;spacingLeft=4;spacingRight=4;overflow=hidden;points=[[0,0.5],[1,0.5]];portConstraint=eastwest;rotatable=0;whiteSpace=wrap;html=1;" vertex="1" parent="l7kf4bjw7-olmJK9a59Z-27">
          <mxGeometry y="30" width="140" height="30" as="geometry" />
        </mxCell>
        <mxCell id="l7kf4bjw7-olmJK9a59Z-29" value="YES" style="text;html=1;align=center;verticalAlign=middle;resizable=0;points=[];autosize=1;strokeColor=none;fillColor=none;" vertex="1" parent="1">
          <mxGeometry x="1150" y="600" width="50" height="30" as="geometry" />
        </mxCell>
        <mxCell id="l7kf4bjw7-olmJK9a59Z-33" value="username_msg&lt;div&gt;를 request 저장&lt;/div&gt;" style="whiteSpace=wrap;html=1;rounded=1;arcSize=0;strokeWidth=2;" vertex="1" parent="1">
          <mxGeometry x="875" y="630" width="120" height="60" as="geometry" />
        </mxCell>
        <mxCell id="l7kf4bjw7-olmJK9a59Z-35" value="password_msg&lt;div&gt;를 request 저장&lt;/div&gt;" style="whiteSpace=wrap;html=1;rounded=1;arcSize=0;strokeWidth=2;" vertex="1" parent="1">
          <mxGeometry x="1085" y="630" width="120" height="60" as="geometry" />
        </mxCell>
        <mxCell id="l7kf4bjw7-olmJK9a59Z-39" style="edgeStyle=orthogonalEdgeStyle;rounded=0;orthogonalLoop=1;jettySize=auto;html=1;entryX=1;entryY=0.5;entryDx=0;entryDy=0;" edge="1" parent="1" source="l7kf4bjw7-olmJK9a59Z-37" target="l7kf4bjw7-olmJK9a59Z-5">
          <mxGeometry relative="1" as="geometry">
            <Array as="points">
              <mxPoint x="1305" y="240" />
            </Array>
          </mxGeometry>
        </mxCell>
        <mxCell id="l7kf4bjw7-olmJK9a59Z-47" value="" style="edgeStyle=orthogonalEdgeStyle;rounded=0;orthogonalLoop=1;jettySize=auto;html=1;" edge="1" parent="1" source="l7kf4bjw7-olmJK9a59Z-37" target="l7kf4bjw7-olmJK9a59Z-46">
          <mxGeometry relative="1" as="geometry">
            <Array as="points">
              <mxPoint x="1305" y="835" />
            </Array>
          </mxGeometry>
        </mxCell>
        <mxCell id="l7kf4bjw7-olmJK9a59Z-37" value="&lt;div&gt;ID is NULL&lt;br&gt;&lt;/div&gt;&lt;div&gt;or&lt;/div&gt;PW is NULL" style="rhombus;whiteSpace=wrap;html=1;rounded=1;arcSize=0;strokeWidth=2;" vertex="1" parent="1">
          <mxGeometry x="1250" y="505" width="110" height="110" as="geometry" />
        </mxCell>
        <mxCell id="l7kf4bjw7-olmJK9a59Z-41" value="YES" style="text;html=1;align=center;verticalAlign=middle;resizable=0;points=[];autosize=1;strokeColor=none;fillColor=none;" vertex="1" parent="1">
          <mxGeometry x="1250" y="470" width="50" height="30" as="geometry" />
        </mxCell>
        <mxCell id="l7kf4bjw7-olmJK9a59Z-42" value="NO" style="text;html=1;align=center;verticalAlign=middle;resizable=0;points=[];autosize=1;strokeColor=none;fillColor=none;" vertex="1" parent="1">
          <mxGeometry x="1255" y="615" width="40" height="30" as="geometry" />
        </mxCell>
        <mxCell id="l7kf4bjw7-olmJK9a59Z-45" value="forwarding" style="text;html=1;align=center;verticalAlign=middle;resizable=0;points=[];autosize=1;strokeColor=none;fillColor=none;" vertex="1" parent="1">
          <mxGeometry x="1225" y="240" width="80" height="30" as="geometry" />
        </mxCell>
        <mxCell id="l7kf4bjw7-olmJK9a59Z-49" value="" style="edgeStyle=orthogonalEdgeStyle;rounded=0;orthogonalLoop=1;jettySize=auto;html=1;exitX=0.5;exitY=1;exitDx=0;exitDy=0;" edge="1" parent="1" source="l7kf4bjw7-olmJK9a59Z-46" target="l7kf4bjw7-olmJK9a59Z-48">
          <mxGeometry relative="1" as="geometry">
            <mxPoint x="724.3000000000002" y="989.9799999999996" as="sourcePoint" />
            <Array as="points" />
          </mxGeometry>
        </mxCell>
        <mxCell id="l7kf4bjw7-olmJK9a59Z-50" style="edgeStyle=orthogonalEdgeStyle;rounded=0;orthogonalLoop=1;jettySize=auto;html=1;entryX=0;entryY=0.5;entryDx=0;entryDy=0;" edge="1" parent="1" source="l7kf4bjw7-olmJK9a59Z-61" target="l7kf4bjw7-olmJK9a59Z-5">
          <mxGeometry relative="1" as="geometry">
            <Array as="points">
              <mxPoint x="450" y="240" />
            </Array>
          </mxGeometry>
        </mxCell>
        <mxCell id="l7kf4bjw7-olmJK9a59Z-66" value="" style="edgeStyle=orthogonalEdgeStyle;rounded=0;orthogonalLoop=1;jettySize=auto;html=1;" edge="1" parent="1" source="l7kf4bjw7-olmJK9a59Z-46" target="l7kf4bjw7-olmJK9a59Z-61">
          <mxGeometry relative="1" as="geometry" />
        </mxCell>
        <mxCell id="l7kf4bjw7-olmJK9a59Z-46" value="&lt;div&gt;ID is admin&lt;/div&gt;" style="rhombus;whiteSpace=wrap;html=1;rounded=1;arcSize=0;strokeWidth=2;" vertex="1" parent="1">
          <mxGeometry x="669.28" y="780" width="110" height="110" as="geometry" />
        </mxCell>
        <mxCell id="l7kf4bjw7-olmJK9a59Z-65" value="" style="edgeStyle=orthogonalEdgeStyle;rounded=0;orthogonalLoop=1;jettySize=auto;html=1;" edge="1" parent="1" source="l7kf4bjw7-olmJK9a59Z-48" target="l7kf4bjw7-olmJK9a59Z-62">
          <mxGeometry relative="1" as="geometry" />
        </mxCell>
        <mxCell id="l7kf4bjw7-olmJK9a59Z-68" value="" style="edgeStyle=orthogonalEdgeStyle;rounded=0;orthogonalLoop=1;jettySize=auto;html=1;" edge="1" parent="1" source="l7kf4bjw7-olmJK9a59Z-48" target="l7kf4bjw7-olmJK9a59Z-67">
          <mxGeometry relative="1" as="geometry" />
        </mxCell>
        <mxCell id="l7kf4bjw7-olmJK9a59Z-48" value="&lt;div&gt;PW is 1234&lt;/div&gt;" style="rhombus;whiteSpace=wrap;html=1;rounded=1;arcSize=0;strokeWidth=2;" vertex="1" parent="1">
          <mxGeometry x="669.28" y="950" width="110" height="110" as="geometry" />
        </mxCell>
        <mxCell id="l7kf4bjw7-olmJK9a59Z-51" value="username_msg" style="swimlane;fontStyle=0;childLayout=stackLayout;horizontal=1;startSize=30;horizontalStack=0;resizeParent=1;resizeParentMax=0;resizeLast=0;collapsible=1;marginBottom=0;whiteSpace=wrap;html=1;" vertex="1" parent="1">
          <mxGeometry x="460" y="740" width="175.94" height="60" as="geometry" />
        </mxCell>
        <mxCell id="l7kf4bjw7-olmJK9a59Z-52" value="해당 ID는 존재하지않습니다." style="text;strokeColor=none;fillColor=none;align=left;verticalAlign=middle;spacingLeft=4;spacingRight=4;overflow=hidden;points=[[0,0.5],[1,0.5]];portConstraint=eastwest;rotatable=0;whiteSpace=wrap;html=1;" vertex="1" parent="l7kf4bjw7-olmJK9a59Z-51">
          <mxGeometry y="30" width="175.94" height="30" as="geometry" />
        </mxCell>
        <mxCell id="l7kf4bjw7-olmJK9a59Z-53" value="NO" style="text;html=1;align=center;verticalAlign=middle;resizable=0;points=[];autosize=1;strokeColor=none;fillColor=none;" vertex="1" parent="1">
          <mxGeometry x="650" y="790" width="40" height="30" as="geometry" />
        </mxCell>
        <mxCell id="l7kf4bjw7-olmJK9a59Z-56" value="password_msg" style="swimlane;fontStyle=0;childLayout=stackLayout;horizontal=1;startSize=30;horizontalStack=0;resizeParent=1;resizeParentMax=0;resizeLast=0;collapsible=1;marginBottom=0;whiteSpace=wrap;html=1;" vertex="1" parent="1">
          <mxGeometry x="460" y="910" width="175.94" height="60" as="geometry" />
        </mxCell>
        <mxCell id="l7kf4bjw7-olmJK9a59Z-57" value="패스워드가 일치하지않습니다." style="text;strokeColor=none;fillColor=none;align=left;verticalAlign=middle;spacingLeft=4;spacingRight=4;overflow=hidden;points=[[0,0.5],[1,0.5]];portConstraint=eastwest;rotatable=0;whiteSpace=wrap;html=1;" vertex="1" parent="l7kf4bjw7-olmJK9a59Z-56">
          <mxGeometry y="30" width="175.94" height="30" as="geometry" />
        </mxCell>
        <mxCell id="l7kf4bjw7-olmJK9a59Z-59" value="NO" style="text;html=1;align=center;verticalAlign=middle;resizable=0;points=[];autosize=1;strokeColor=none;fillColor=none;" vertex="1" parent="1">
          <mxGeometry x="650" y="960" width="40" height="30" as="geometry" />
        </mxCell>
        <mxCell id="l7kf4bjw7-olmJK9a59Z-64" style="edgeStyle=orthogonalEdgeStyle;rounded=0;orthogonalLoop=1;jettySize=auto;html=1;entryX=0;entryY=0.5;entryDx=0;entryDy=0;" edge="1" parent="1" source="l7kf4bjw7-olmJK9a59Z-62" target="l7kf4bjw7-olmJK9a59Z-5">
          <mxGeometry relative="1" as="geometry">
            <Array as="points">
              <mxPoint x="450" y="1005" />
              <mxPoint x="450" y="240" />
            </Array>
          </mxGeometry>
        </mxCell>
        <mxCell id="l7kf4bjw7-olmJK9a59Z-62" value="password_msg&lt;div&gt;를 request 저장&lt;/div&gt;" style="whiteSpace=wrap;html=1;rounded=1;arcSize=0;strokeWidth=2;" vertex="1" parent="1">
          <mxGeometry x="500" y="975" width="120" height="60" as="geometry" />
        </mxCell>
        <mxCell id="l7kf4bjw7-olmJK9a59Z-63" value="" style="edgeStyle=orthogonalEdgeStyle;rounded=0;orthogonalLoop=1;jettySize=auto;html=1;entryX=0;entryY=0.5;entryDx=0;entryDy=0;exitX=0;exitY=0.5;exitDx=0;exitDy=0;" edge="1" parent="1" source="l7kf4bjw7-olmJK9a59Z-61" target="l7kf4bjw7-olmJK9a59Z-61">
          <mxGeometry relative="1" as="geometry">
            <mxPoint x="669" y="835" as="sourcePoint" />
            <mxPoint x="660" y="240" as="targetPoint" />
            <Array as="points" />
          </mxGeometry>
        </mxCell>
        <mxCell id="l7kf4bjw7-olmJK9a59Z-61" value="username_msg&lt;div&gt;를 request 저장&lt;/div&gt;" style="whiteSpace=wrap;html=1;rounded=1;arcSize=0;strokeWidth=2;" vertex="1" parent="1">
          <mxGeometry x="500" y="805" width="120" height="60" as="geometry" />
        </mxCell>
        <mxCell id="l7kf4bjw7-olmJK9a59Z-72" value="" style="edgeStyle=orthogonalEdgeStyle;rounded=0;orthogonalLoop=1;jettySize=auto;html=1;" edge="1" parent="1" source="l7kf4bjw7-olmJK9a59Z-67" target="l7kf4bjw7-olmJK9a59Z-71">
          <mxGeometry relative="1" as="geometry" />
        </mxCell>
        <mxCell id="l7kf4bjw7-olmJK9a59Z-67" value="사용자 정보를 저장&lt;div&gt;isAuth/Role&lt;/div&gt;" style="whiteSpace=wrap;html=1;rounded=1;arcSize=0;strokeWidth=2;" vertex="1" parent="1">
          <mxGeometry x="664.28" y="1135" width="120" height="60" as="geometry" />
        </mxCell>
        <mxCell id="l7kf4bjw7-olmJK9a59Z-76" value="" style="edgeStyle=orthogonalEdgeStyle;rounded=0;orthogonalLoop=1;jettySize=auto;html=1;" edge="1" parent="1" source="l7kf4bjw7-olmJK9a59Z-71" target="l7kf4bjw7-olmJK9a59Z-75">
          <mxGeometry relative="1" as="geometry" />
        </mxCell>
        <mxCell id="l7kf4bjw7-olmJK9a59Z-71" value="MAIN PAGE&lt;div&gt;이동 출력&lt;/div&gt;" style="shape=parallelogram;html=1;strokeWidth=2;perimeter=parallelogramPerimeter;whiteSpace=wrap;rounded=1;arcSize=12;size=0.23;" vertex="1" parent="1">
          <mxGeometry x="665.95" y="1230" width="116.67" height="70" as="geometry" />
        </mxCell>
        <mxCell id="l7kf4bjw7-olmJK9a59Z-78" value="" style="edgeStyle=orthogonalEdgeStyle;rounded=0;orthogonalLoop=1;jettySize=auto;html=1;" edge="1" parent="1" source="l7kf4bjw7-olmJK9a59Z-75" target="l7kf4bjw7-olmJK9a59Z-77">
          <mxGeometry relative="1" as="geometry" />
        </mxCell>
        <mxCell id="l7kf4bjw7-olmJK9a59Z-75" value="MAIN PAGE로 이동" style="whiteSpace=wrap;html=1;strokeWidth=2;rounded=1;arcSize=0;" vertex="1" parent="1">
          <mxGeometry x="664.2750000000001" y="1350" width="120" height="60" as="geometry" />
        </mxCell>
        <mxCell id="l7kf4bjw7-olmJK9a59Z-80" value="" style="edgeStyle=orthogonalEdgeStyle;rounded=0;orthogonalLoop=1;jettySize=auto;html=1;" edge="1" parent="1" source="l7kf4bjw7-olmJK9a59Z-77" target="l7kf4bjw7-olmJK9a59Z-79">
          <mxGeometry relative="1" as="geometry" />
        </mxCell>
        <mxCell id="l7kf4bjw7-olmJK9a59Z-77" value="MAIN PAGE" style="shape=document;whiteSpace=wrap;html=1;boundedLbl=1;strokeWidth=2;rounded=1;arcSize=0;" vertex="1" parent="1">
          <mxGeometry x="664.2750000000001" y="1480" width="120" height="80" as="geometry" />
        </mxCell>
        <mxCell id="l7kf4bjw7-olmJK9a59Z-79" value="종료" style="whiteSpace=wrap;html=1;strokeWidth=2;rounded=1;arcSize=50;" vertex="1" parent="1">
          <mxGeometry x="664.2750000000001" y="1650" width="120" height="60" as="geometry" />
        </mxCell>
      </root>
    </mxGraphModel>
  </diagram>
</mxfile>
